PathFileType	4	(X/Y/Z)	C:/Users/beibeiliu/ov580/test_trc/User3\out7_training_dense_right.trc
DataRate	CameraRate	NumFrames	NumMarkers	Units	OrigDataRate	OrigDataStartFrame	OrigNumFrames
120	120	20	19	mm	120	126	500
Frame#	Time	ThumbCMC			ThumbMCP			ThumbIP			ThumbTip			IndexMCP			IndexPIP			IndexTip			MiddleMCP			MiddlePIP			MiddleTip			RingMCP			RingPIP			RingTip			PinkyMCP			PinkyPIP			PinkyTip			BackHand1			BackHand2			BackHand3	
		X0	Y0	Z0	X1	Y1	Z1	X2	Y2	Z2	X3	Y3	Z3	X4	Y4	Z4	X5	Y5	Z5	X6	Y6	Z6	X7	Y7	Z7	X8	Y8	Z8	X9	Y9	Z9	X10	Y10	Z10	X11	Y11	Z11	X12	Y12	Z12	X13	Y13	Z13	X14	Y14	Z14	X15	Y15	Z15	X16	Y16	Z16	X17	Y17	Z17	X18	Y18	Z18	
125	1.04167	108.022	51.9045	49.7541	89.2106	31.1931	28.0452	78.3612	16.1763	8.35582	71.9917	2.32239	-12.7797	111.384	68.6266	-24.6112	98.5333	63.1457	-50.2639	90.3547	46.1287	-74.2945	136.977	66.1438	-34.7429	124.689	57.9039	-64.8304	119.046	33.6063	-89.7719	153.612	57.553	-29.7981	153.522	47.368	-58.1849	144.63	31.6638	-75.2824	173.096	43.0566	-13.9643	175.862	35.881	-35.4641	172.504	19.1894	-54.7583	167.443	69.1447	20.2286	170.188	69.3312	50.6999	133.842	77.16	37.4672	
126	1.05	108.366	46.3176	45.6153	92.058	26.3397	27.7712	77.1277	10.1931	7.09995	72.9146	-3.71257	-9.06418	109.122	63.8133	-26.9478	101.59	58.6536	-56.5967	96.8057	49.0318	-79.2308	137.101	65.6328	-39.3876	130.831	59.047	-66.7287	127.034	43.8394	-94.1479	158.975	58.4251	-33.0926	156.486	53.4606	-56.9434	155.895	39.7163	-82.8111	179.078	46.2363	-14.8513	185.451	39.0834	-37.3334	183.805	28.4345	-59.15	162.057	70.5187	18.0998	169.961	72.338	48.8596	131.667	76.5345	33.2869	
127	1.05833	107.534	42.6697	43.6973	95.2023	21.1484	24.1612	79.9749	3.51069	9.68962	71.3545	-11.0134	-7.3058	113.663	56.8184	-31.9053	99.2188	52.9646	-57.4562	94.3631	46.0473	-82.1092	134.936	61.7913	-39.0169	133.564	56.267	-69.1832	128.406	46.0419	-99.2423	156.798	56.545	-32.7717	160.581	53.4737	-61.1154	162.055	44.9049	-83.0585	183.243	48.0156	-19.6165	188.25	40.8272	-40.6927	194.093	33.8438	-60.6653	163.466	67.6289	15.0456	164.362	71.7207	49.5731	132.934	70.4162	33.8112	
128	1.06667	105.577	38.7223	45.6335	95.4915	17.275	29.2858	81.2411	-1.7871	10.2834	68.2924	-18.0545	-5.03029	111.195	50.936	-32.5317	104.557	47.1192	-55.1742	97.6375	41.6393	-79.5317	136.777	56.1136	-37.5662	131.031	52.8909	-68.928	128.453	44.5973	-100.471	157.428	54.3083	-35.0913	160.23	52.3121	-60.2098	161.086	45.7612	-85.8963	185.641	46.015	-19.1441	188.701	42.6551	-36.7266	194.023	35.8365	-57.0902	162.642	65.0441	12.9246	166.155	73.2768	44.8259	131.622	67.1251	32.5347	
129	1.075	108.515	35.5621	41.7198	93.9908	13.9598	26.1056	77.8111	-5.33979	11.431	68.3621	-21.2115	-0.249158	112.958	46.8259	-36.7888	101.042	42.1729	-56.0622	96.3657	37.2604	-80.4756	134.394	53.6095	-42.9908	133.036	49.0314	-70.1977	125.226	40.9048	-100.963	157.878	51.1048	-34.074	160.884	49.9323	-56.48	162.726	44.3605	-86.144	180.792	43.5882	-16.6864	193.811	38.6731	-39.6709	201.287	33.0712	-58.9458	160.431	64.3501	13.6032	161.877	70.5092	45.9385	128.193	66.0519	29.4378	
130	1.08333	107.943	35.3772	42.7876	90.1447	10.858	24.9775	78.89	-7.75711	7.79881	70.2587	-23.8385	-2.7184	110.914	43.7784	-34.8454	98.4784	37.171	-56.2979	96.7207	33.3894	-81.0042	137.376	49.7551	-45.6169	130.684	43.1956	-72.0903	125.829	35.914	-98.4568	158.677	48.4362	-36.2519	158.514	45.6408	-61.1762	159.33	39.8805	-88.0965	179.697	41.3217	-21.5707	191.019	36.6834	-37.2108	198.502	31.4283	-61.0266	157.024	63.9963	11.8725	165.19	69.5187	42.8909	128.87	63.3741	27.2467	
131	1.09167	105.991	35.0428	39.0304	91.4873	12.0564	27.9208	75.5427	-9.67002	8.24189	68.8199	-23.9607	-2.45689	105.714	43.3915	-32.5338	97.1007	37.3844	-56.692	89.4633	28.959	-79.858	134.393	49.0196	-41.41	127.998	40.9726	-73.3434	126.495	31.6307	-101.902	156.235	46.9885	-35.0495	155.445	43.0557	-61.5778	157.478	32.6825	-88.7392	178.833	41.3497	-21.3365	187.154	32.8485	-42.5874	195.608	26.7113	-60.5617	155.47	63.2975	13.5398	161.004	71.3248	38.0103	126.887	64.6943	24.3449	
132	1.1	101.141	35.7045	44.4406	88.2999	12.3457	27.6015	74.1071	-7.97824	6.26122	71.5197	-23.0695	-7.2852	109.116	45.7015	-33.8322	98.7992	38.2382	-58.4343	86.6477	27.1692	-83.9512	128.514	51.6284	-41.1995	126.086	42.2463	-72.6847	123.413	29.4036	-97.7263	152.891	47.916	-36.5886	151.527	43.0831	-60.2002	149.844	28.2099	-86.9271	176.572	40.9432	-18.9853	182.128	31.3038	-44.6331	185.828	19.7773	-61.1014	157.178	66.1559	13.7761	163.13	69.8763	43.011	124.832	67.7467	30.2075	
133	1.10833	99.6651	37.0644	45.2011	90.2116	13.178	22.0642	78.984	-4.44279	6.10815	73.1193	-21.1118	-10.7411	101.767	49.961	-33.5529	93.057	40.1354	-57.9742	89.8468	27.5629	-83.0663	130.351	53.8078	-42.6654	120.543	45.375	-66.9696	119.658	26.8941	-95.5489	151.68	50.5408	-34.2802	151.291	43.7535	-60.5507	150.249	26.5447	-83.4186	175.721	41.3327	-22.0876	179.551	29.9266	-45.4918	176.944	17.7245	-59.8388	155.458	64.4056	14.4757	157.403	70.2831	41.4091	122.945	67.5846	30.7287	
134	1.11667	102.469	39.5788	45.4905	89.9684	16.191	25.4261	72.6992	-3.12283	3.86142	71.0136	-17.793	-15.6362	103.404	56.0751	-30.9742	89.1058	46.781	-54.2737	84.1435	28.5719	-78.5381	123.756	59.5139	-39.407	118.315	48.3337	-68.0797	114.769	21.821	-94.0883	145.473	54.6853	-32.864	144.46	46.6606	-58.6342	138.012	23.0263	-82.3326	168.658	43.3618	-18.295	168.135	31.2586	-45.0172	166.642	15.8866	-60.3457	153.185	67.703	19.5323	159.129	67.963	48.9915	126.735	70.6892	35.1836	
135	1.125	98.0735	41.052	45.2147	83.8125	17.561	25.8131	71.3838	0.167922	2.44883	73.5572	-12.8027	-17.0275	98.1134	59.4452	-26.4833	91.0683	49.2528	-54.1656	85.2101	30.2013	-74.2754	123.334	61.1829	-39.7069	115.36	49.5048	-66.0156	109.206	23.5861	-85.4993	142.591	56.0691	-34.3622	139.528	44.6526	-60.2791	136.5	22.948	-75.5649	164.19	43.1353	-18.8766	164.474	30.6647	-45.0369	159.968	12.498	-59.2903	152.992	66.1524	17.5047	158.184	69.6823	50.3258	123.666	70.487	33.6812	
136	1.13333	97.0129	41.9372	49.4892	86.4732	20.8324	24.2894	75.3268	4.73291	2.43997	74.9163	-8.31593	-18.8999	101.877	62.2493	-25.446	85.64	52.2858	-50.7774	82.6287	27.5544	-70.9779	121.851	62.4474	-36.6422	110.869	51.5334	-61.5174	106.493	20.5801	-79.2524	143.863	56.5647	-29.7344	138.701	45.5216	-56.0093	131.533	18.5815	-72.7133	161.122	44.8688	-18.3695	159.371	30.2366	-42.7693	149.728	11.1485	-55.6559	152.664	68.1283	19.3036	160.557	66.1338	51.9529	124.182	73.4713	36.6277	
137	1.14167	95.1776	43.7035	49.6393	83.3531	23.1955	23.1952	70.6031	8.23576	-0.915129	75.9122	-4.96555	-18.4337	98.825	65.1586	-28.0331	85.7029	53.1428	-50.7966	78.351	30.3721	-66.9486	120.513	64.1891	-35.4926	107.436	48.7837	-64.1981	100.87	17.6295	-74.1622	141.571	58.0899	-32.2878	133.231	43.3145	-58.3672	124.398	14.8563	-67.5446	157.55	44.5958	-21.1853	155.069	31.3671	-42.0957	147.468	5.23846	-51.7246	155.818	67.813	21.7778	155.95	69.4073	50.9644	121.07	74.6418	37.838	
138	1.15	94.6556	46.6325	49.0207	81.1433	26.0613	25.0777	70.0621	10.5565	-0.137385	72.4563	-4.0353	-21.7537	100.324	67.4214	-27.7871	85.1759	53.9976	-52.389	80.0373	30.4634	-64.7942	119.989	66.6029	-36.392	107.822	48.0283	-62.5046	103.591	18.3116	-70.4123	140.72	57.455	-28.3949	135.054	41.3792	-57.0522	121.451	13.7941	-62.7466	157.2	45.1912	-20.3211	151.974	31.1595	-41.4145	141.724	5.20112	-49.1897	152.315	70.3156	20.5175	159.963	68.2719	50.1804	124.079	75.0288	41.3393	
139	1.15833	98.8804	49.3702	49.6717	84.7813	30.1806	23.0363	70.8463	14.1765	-0.0456602	76.5129	1.60618	-19.0935	98.0786	71.5659	-25.9464	85.3127	55.938	-51.3877	78.2804	33.0789	-60.6562	120.464	68.3596	-34.7573	108.687	48.6833	-61.4017	101.914	16.5581	-66.0103	138.687	57.6938	-27.7439	134.215	42.3943	-53.7316	120.753	10.0292	-57.3559	159.35	43.05	-20.3615	151.77	31.2483	-39.514	137.337	4.34891	-44.452	152.762	69.4731	21.4074	160.8	68.6488	51.9335	127.172	77.4147	41.0391	
140	1.16667	99.3827	53.583	47.2878	79.9309	33.5073	25.3857	71.7091	18.6579	2.9732	76.0246	5.95527	-20.4787	102.166	73.8441	-23.3616	90.5947	57.042	-52.2207	77.0123	32.2961	-58.6536	122.861	69.0176	-32.0379	108.211	50.1524	-60.1577	101.132	15.6102	-62.9752	144.124	56.6133	-30.6537	131.807	40.6027	-53.6847	120.475	7.47903	-52.3495	159.33	42.2347	-16.0072	151.004	29.6925	-38.3003	131.229	2.42441	-39.2487	158.925	65.7386	24.0609	161.796	66.2589	50.2965	126.417	79.972	41.1077	
141	1.175	96.9332	55.9167	51.0643	83.0142	36.2973	22.412	69.7322	22.7018	-1.34515	77.5229	8.70883	-19.9694	102.01	75.2337	-27.4358	93.508	59.2264	-51.4895	81.6778	31.8256	-56.3726	126.589	67.0086	-33.3617	108.231	50.6107	-58.5169	98.3362	16.056	-58.7234	139.689	56.5741	-31.2221	132.418	35.6022	-52.6675	117.719	10.6151	-49.5519	161.544	39.3248	-16.8919	147.945	22.6161	-37.8223	133.606	0.457962	-33.8129	155.901	69.2108	21.5953	165.738	66.5064	52.6108	132.398	79.3922	39.7034	
142	1.18333	97.8613	59.1699	45.9556	79.6373	40.9349	24.2616	70.3616	26.968	-2.32318	76.4665	12.3538	-19.2793	107.924	74.9495	-27.385	92.8615	60.7468	-50.5463	79.613	33.6308	-55.0386	126.96	66.7598	-36.1258	113.97	48.8775	-58.0574	97.1348	11.3154	-52.1754	142.998	53.8944	-33.3105	131.769	37.807	-51.2073	114.886	5.50869	-42.5902	159.553	37.3278	-18.7606	146.854	22.3963	-36.2053	129.746	-3.71059	-30.0403	158.302	66.599	24.962	168.067	65.7106	48.35	131.978	83.1871	39.057	
143	1.19167	103.258	62.7005	44.8787	82.1893	46.6819	25.1313	69.2562	32.6603	-2.62665	75.2213	17.5053	-23.7393	111.414	76.5501	-25.632	93.7419	60.4066	-52.2576	82.0764	33.6118	-54.0007	130.814	65.8531	-34.4919	114.761	47.6298	-58.2179	93.6646	13.8314	-49.1132	145.745	51.324	-28.0268	131.407	27.4947	-50.4578	112.683	6.18428	-40.8045	160.156	32.7056	-15.9909	145.971	15.7101	-33.283	121.039	-0.461269	-26.0358	161.45	66.7333	19.5227	167.078	62.4483	54.0883	136.518	79.9971	37.8408	
144	1.2	107.066	68.2106	49.022	82.6531	54.4167	23.5224	72.0569	41.7034	-1.63583	71.0325	25.2455	-21.0356	117.469	77.5251	-30.9562	101.242	61.2933	-54.6809	79.9494	42.4902	-54.6916	132.799	65.1828	-33.9161	114.088	46.3006	-57.9675	91.2686	19.2315	-49.5721	146.497	46.0596	-31.7449	132.731	28.1465	-48.5243	107.496	4.36349	-38.2602	158.852	25.5	-17.7726	136.768	10.6955	-32.6689	117.215	-0.018235	-23.7872	164.488	59.232	18.5918	170.352	59.2909	53.854	144.55	81.9576	35.3094	
